<svg viewBox="0 0 512 512" xml:space="preserve" xmlns="http://www.w3.org/2000/svg"><path d="M256 0A256 256 0 0 0 0 256a256 256 0 0 0 256 256 256 256 0 0 0 256-256A256 256 0 0 0 256 0zm-85.648 152.332h171.296c33.607 0 60.854 27.247 60.854 60.854v85.63c0 33.607-27.246 60.854-60.854 60.854H170.352c-33.607 0-60.854-27.246-60.854-60.854v-85.63c0-33.607 27.246-60.854 60.854-60.854zm48.457 61.115c-1.614.092-3.038 1.417-3.038 3.217v78.815c0 2.365 2.466 3.919 4.602 2.9l80.121-38.211c2.41-1.148 2.453-4.566.067-5.773l-80.12-40.6a3.191 3.191 0 0 0-1.632-.348z"/></svg>