<?xml version="1.0" encoding="utf-8"?><svg xmlns="http://www.w3.org/2000/svg" xmlns:xlink="http://www.w3.org/1999/xlink"><symbol viewBox="0 0 16 16" id="Check_circle_black" xmlns="http://www.w3.org/2000/svg"><path fill-rule="evenodd" clip-rule="evenodd" d="M8 16A8 8 0 108 0a8 8 0 000 16zm3.707-9.293a1 1 0 00-1.414-1.414L7 8.586 5.707 7.293a1 1 0 00-1.414 1.414l2 2a1 1 0 001.414 0l4-4z"/></symbol><symbol viewBox="0 0 648.87 648.87" id="car" xmlns="http://www.w3.org/2000/svg"><path d="M241.115 326.885c-32.732 0-59.318-26.626-59.318-59.358 0-32.706 26.586-59.332 59.318-59.332 32.72 0 59.359 26.626 59.359 59.332 0 32.732-26.64 59.358-59.359 59.358zm0-129.503c-38.639 0-70.131 31.466-70.131 70.145 0 38.665 31.492 70.131 70.131 70.131 38.666 0 70.159-31.466 70.159-70.131 0-38.68-31.493-70.145-70.159-70.145"/><path d="M269.781 236.754l-28.586 28.586-28.546-28.586c-2.133-2.093-5.546-2.093-7.64 0a5.392 5.392 0 000 7.627l32.346 32.399a5.448 5.448 0 003.827 1.586c1.387 0 2.76-.533 3.827-1.586v-.014l32.385-32.385a5.368 5.368 0 000-7.627c-2.106-2.093-5.52-2.093-7.613 0"/><path d="M573.774 398.083c3.24.187 6.266.374 9.506.56 0 7.227-.187 14.653-.187 21.88-17.306 0-34.612 0-51.932-.2-5.706-25.106-30.052-45.266-56.292-41.466-23.786 1.334-40.332 21.693-46.998 42.8H168.584a6.73 6.73 0 00-.067-.467 48.07 48.07 0 00-31.226-37.213h290.006c-.453-44.252-.08-88.558 0-132.81l-.133-.12v-33.36l.147.12v-.052h.253c26.933-.187 53.852-.374 80.971 0-.813 10.186.574 19.986 2.947 29.639 3.72 15.226 9.866 30.052 13.6 45.292 3.586 9 3.293 21.706 12.72 26.773.546.293 1.106.573 1.732.813a662.38 662.38 0 0013.893 6.627c6.667 3.106 13.347 6.146 19.96 9.173.76 20.732.2 41.265.387 62.011zm-94.091 76.732c-25.08 0-45.426-20.333-45.426-45.426 0-25.08 20.346-45.412 45.426-45.412 25.092 0 45.425 20.333 45.425 45.412 0 25.093-20.333 45.426-45.425 45.426zm-358.711 0c-25.08 0-45.426-20.333-45.426-45.426 0-2.64.24-5.213.68-7.733 3.653-21.36 22.24-37.626 44.639-37.679h.213c22.413.053 40.986 16.32 44.652 37.68.427 2.52.667 5.092.667 7.732 0 25.093-20.333 45.426-45.425 45.426zm-47.613-53.159h-7v-37.679h38.306A48.046 48.046 0 0073.44 421.19c-.04.16-.053.32-.08.466zm-7.8-247.354h438.763v33.933h-84.918V376.51H65.56zM324.42.133C145.252.133.002 145.383.002 324.565c0 179.17 145.25 324.419 324.419 324.419 179.182 0 324.432-145.25 324.432-324.419C648.852 145.383 503.602.133 324.42.133"/><path d="M132.051 421.683c-2.453-3.52-6.506-5.827-11.12-5.827s-8.693 2.307-11.132 5.827a13.666 13.666 0 00-2.214 5.28c-.133.8-.213 1.613-.213 2.453 0 3.96 1.693 7.493 4.387 9.973a13.467 13.467 0 009.173 3.587 13.46 13.46 0 009.16-3.587c2.693-2.48 4.4-6.013 4.4-9.973 0-.84-.094-1.653-.24-2.453a13.644 13.644 0 00-2.2-5.28m347.591-5.867c-6.654 0-12.173 4.787-13.333 11.093-.147.8-.24 1.614-.24 2.454 0 3.96 1.706 7.506 4.4 9.973a13.467 13.467 0 009.173 3.586c3.533 0 6.746-1.36 9.16-3.586a13.474 13.474 0 004.386-9.973c0-.84-.08-1.654-.227-2.454-1.16-6.306-6.68-11.093-13.32-11.093m56.533-15.999c11.746.2 23.706.2 35.465-.2.2-6.88.2-13.773-.213-20.866a970.991 970.991 0 00-35.252 0c-.2 7.093-.2 13.986 0 21.066M463.243 256.22c-.76 20.16-.373 40.32-.187 60.479 19.4 0 38.613.2 58.012-.187-5.32-20.16-11.786-39.946-17.12-59.918-13.506-.574-27.199-.374-40.705-.374"/></symbol><symbol viewBox="0 0 648.87 648.88" id="document" xmlns="http://www.w3.org/2000/svg"><path d="M418.497 315.606c.627.32 1.254.453 1.894.84l4.08 2.533s9.706-15.773 21.092-34.24h-8.026l-19.04 30.867m-19.066 61.998l39.68-30.252-30.467-18.787zm102.664-181.062a27.407 27.407 0 01-8.013-7.533l-10.813 17.52 31.333 19.332 10.8-17.506a27.673 27.673 0 01-10.32-3.8l-12.987-8.013"/><path d="M474.63 425.203l19.346 14.026c1.906 1.387 2.32 4.04.946 5.96a4.27 4.27 0 01-5.96.947l-16.92-12.28-18.319 12.36a4.267 4.267 0 01-5.16-.307l-21.04-18.026-19.972 15.733a4.238 4.238 0 01-4.853.293l-26.853-16.293-21.386 18.306a4.261 4.261 0 01-4.627.6L311.68 428.15a4.267 4.267 0 013.698-7.693l35.642 17.173 21.626-18.506a4.277 4.277 0 014.987-.4l26.972 16.36 20.4-16.067a4.262 4.262 0 015.413.107l21.226 18.2 18.093-12.2a4.25 4.25 0 014.893.08zm-317.633-49.359h194.675v9.893H156.997zm0-28.612h194.675v11.813H156.997zm0-32.44h194.675v17.693H156.997zm303.033 20.16l-8.627 13.973a15.942 15.942 0 01-2.24 3.666l-.426.68-.134-.08c-.8.854-1.653 1.72-2.693 2.52l-45.105 34.4c-3.12 2.373-5.867 3.56-8.04 3.653-4.427.213-6.573-3.987-5.107-11.76l10.467-55.745c.24-1.294.733-2.347 1.146-3.467l-.2-.107.52-.826c.507-1.173 1.187-2.147 1.88-3.08l8.907-14.413 12.146-19.706H122.452v182.675h400.95V284.66h-32.373l-23.293 37.759-7.706 12.533m12.733-94.278c3.453-5.613 9.933-16.106 10.573-17.16.133-.2 1.946-3.146 1.946-3.146l-5.84-3.587-3.653 5.96-11.306 18.307h.013l-16.36 26.559h8.027c6.133-9.96 12.067-19.573 16.6-26.933"/><path d="M541.694 202.408c-.24.414-.6.72-.893 1.067-.28.573-.493 1.187-.84 1.733l-16.186 26.253-10.04 16.293-6.173 10.013-6.04 9.8h38.92v216.808H105.358V267.567h327.645l7.386-11.987 8.533-13.853 11.293-18.306 1.8-2.933 28.293-45.892c.307-.507.747-.88 1.093-1.347.214-.493.36-1 .64-1.466 1.84-2.987 4.947-4.854 8.6-5.694 2.267-.906 4.613-1.56 7.053-1.666 4.173-.2 8.44.8 12.24 3.146l13 8.013c6.186 3.814 9.733 10.294 10.146 17.107.747 3.453.373 6.866-1.387 9.72zM324.406-.053C145.224-.053-.025 145.197-.025 324.379S145.225 648.81 324.406 648.81c179.17 0 324.419-145.25 324.419-324.432S503.575-.053 324.406-.053"/></symbol><symbol viewBox="0 0 648.87 648.87" id="house" xmlns="http://www.w3.org/2000/svg"><path d="M518.462 289.81a16.972 16.972 0 01-12.392 5.346 16.985 16.985 0 01-11.719-4.667l-72.11-68.145-.136-.133-99.556-94.078-159.583 154.183-8.313 8.053c-6.768 6.534-17.58 6.36-24.123-.413-6.548-6.786-6.373-17.586.412-24.133l32.024-30.946 147.597-142.61c6.56-6.333 16.94-6.4 23.562-.133l.136.134 87.843 83.01v-28.185h-8.065v-18.96h61.425v18.96h-8.057v70.998l26.943 25.466 23.436 22.133c6.846 6.48 7.153 17.28.674 24.12zm-96.357-53.826v-.12l.136.12zm71.156 68.158v217.462H378.75V316.769H276.395v204.835H161.88V295.969l159.57-154.183zm13.502 257.474H142.106v-33.533h364.657zM324.434.123C145.252.123.003 145.373.003 324.542c0 179.182 145.25 324.432 324.431 324.432 179.183 0 324.432-145.25 324.432-324.432C648.866 145.373 503.616.123 324.434.123"/></symbol><symbol viewBox="0 0 89.758 89.758" id="instagram" xmlns="http://www.w3.org/2000/svg"><path d="M58.255 23.88H31.503c-4.27 0-7.744 3.474-7.744 7.744v26.752c0 4.27 3.474 7.745 7.744 7.745h26.752c4.27 0 7.745-3.474 7.745-7.745V31.624c0-4.27-3.474-7.744-7.745-7.744zM44.879 58.906c-7.667 0-13.905-6.238-13.905-13.906 0-7.667 6.238-13.905 13.905-13.905 7.668 0 13.906 6.238 13.906 13.905 0 7.667-6.239 13.906-13.906 13.906zM59.232 33.97a3.294 3.294 0 01-3.291-3.29 3.294 3.294 0 013.291-3.29 3.294 3.294 0 013.29 3.29 3.294 3.294 0 01-3.29 3.29z"/><path d="M44.879 36.971c-4.426 0-8.03 3.602-8.03 8.028 0 4.428 3.604 8.031 8.03 8.031 4.428 0 8.029-3.603 8.029-8.031 0-4.425-3.602-8.028-8.029-8.028z"/><path d="M44.879 0C20.094 0 0 20.094 0 44.879c0 24.785 20.094 44.879 44.879 44.879 24.785 0 44.879-20.094 44.879-44.879C89.758 20.094 69.664 0 44.879 0zm26.996 58.376c0 7.511-6.109 13.62-13.62 13.62H31.503c-7.51 0-13.62-6.109-13.62-13.62V31.624c0-7.51 6.11-13.62 13.62-13.62h26.752c7.511 0 13.62 6.11 13.62 13.62v26.752z"/></symbol><symbol viewBox="0 0 648.87 648.87" id="lupa" xmlns="http://www.w3.org/2000/svg"><path d="M536.688 540.213c-8.193 8.4-19.058 12.627-29.937 12.627-10.524 0-21.046-3.947-29.174-11.867L338.154 405.097c-22.337 11.44-47.575 18.026-74.391 18.026-90.277 0-163.463-73.185-163.463-163.463S173.486 96.198 263.763 96.198c90.279 0 163.462 73.184 163.462 163.462 0 33.04-9.88 63.732-26.737 89.451l135.437 131.984c16.537 16.12 16.872 42.585.76 59.118zM324.426.093C145.244.093-.005 145.343-.005 324.525c0 179.17 145.25 324.419 324.431 324.419 179.183 0 324.432-145.25 324.432-324.419C648.858 145.343 503.608.093 324.426.093"/><path d="M263.761 152.623c-59.165 0-107.13 47.972-107.13 107.13 0 59.172 47.965 107.145 107.13 107.145 20.804 0 40.146-6.027 56.583-16.28 10.217-6.373 19.303-14.373 26.834-23.706 14.81-18.373 23.715-41.706 23.715-67.158 0-59.159-47.963-107.131-107.132-107.131"/></symbol><symbol viewBox="0 0 648.87 648.88" id="map" xmlns="http://www.w3.org/2000/svg"><path d="M501.836 294.846c-16.867 51.706-43.906 97.864-74.692 141.663-10.346 14.707-21.12 29.16-32.106 43.466-9.746 12.733-19.653 25.36-29.546 37.959-12.92 16.466-25.8 32.893-38.265 49.452h-5.32c-12.627-16.36-25.6-32.64-38.533-48.985-9.92-12.533-19.84-25.133-29.572-37.853-11.04-14.426-21.866-28.999-32.266-43.865-29.493-42.173-55.452-86.585-72.705-135.757-31.893-103.25 58.452-214.101 163.21-219.408h24.279c102.504 5.307 191.328 110.837 165.516 213.328zM324.346.026C145.165.027-.084 145.277-.084 324.447c0 179.182 145.25 324.445 324.432 324.445 179.168 0 324.418-145.263 324.418-324.446C648.765 145.277 503.515.027 324.347.027"/><path d="M319.573 183.422c-41.945 0-75.984 34.013-75.984 75.985 0 41.96 34.039 75.985 75.984 75.985 41.96 0 75.999-34.026 75.999-75.985 0-41.972-34.04-75.985-75.999-75.985"/></symbol><symbol viewBox="0 0 648.87 648.88" id="persent" xmlns="http://www.w3.org/2000/svg"><path d="M402.291 407.47c-14.546 0-22.151-16.2-21.823-38.692 0-21.493 6.614-38.68 21.823-38.68 15.544 0 21.16 16.867 21.16 38.68 0 24.132-6.942 38.692-21.16 38.692zm.661-104.81c-36.699 0-60.18 29.092-60.18 67.45.331 40.347 26.123 64.8 58.524 64.8 31.084 0 59.519-23.48 59.519-68.452 0-36.693-20.83-63.799-57.863-63.799m-155.404 15.48c-14.55 0-22.155-16.2-22.155-38.68 0-21.492 6.942-38.691 21.825-38.691 15.54 0 21.494 16.866 21.494 38.692 0 24.133-6.947 38.679-21.164 38.679zm58.526-41c0-36.705-20.83-63.824-57.862-63.824-36.707 0-60.18 29.106-60.18 67.452 0 40.345 25.79 64.825 58.524 64.825 31.082 0 59.518-23.48 59.518-68.452"/><path d="M558.194 359.071l-37.87 36.32 4.247 52.291c.577 7.147-3.942 13.707-10.807 15.68l-50.425 14.52-20.54 48.318c-2.766 6.6-9.85 10.333-16.822 8.84l-51.416-10.52-40.599 33.24c-2.784 2.24-6.153 3.4-9.54 3.4-3.388 0-6.778-1.16-9.533-3.4l-40.607-33.24-51.414 10.52c-6.992 1.533-14.06-2.293-16.833-8.84l-20.532-48.318-50.417-14.52a15.038 15.038 0 01-10.82-15.68l4.25-52.292-37.865-36.319c-5.168-4.933-6.124-12.84-2.295-18.88l28.074-44.332-16.647-49.758c-2.28-6.8.56-14.24 6.757-17.813l45.475-26.2 8.374-51.812c1.113-7.053 7.093-12.32 14.226-12.613l52.432-2.066L258.56 93.61c4.29-5.706 12.02-7.613 18.463-4.546l47.4 22.546 47.374-22.546a14.914 14.914 0 0118.462 4.546l31.507 41.986 52.435 2.066c7.153.294 13.114 5.56 14.256 12.613l8.365 51.812 45.49 26.2c6.18 3.573 8.998 11.013 6.722 17.813l-16.637 49.758 28.091 44.333c3.828 6.04 2.875 13.946-2.293 18.88zM324.426-.066C145.258-.066-.005 145.184-.005 324.365s145.25 324.432 324.431 324.432c179.183 0 324.432-145.25 324.432-324.432S503.608-.066 324.426-.066"/><path d="M372.532 213.342L249.195 435.549h26.786l123.666-222.207h-27.115"/></symbol><symbol viewBox="0 0 48 48" id="vk" xmlns="http://www.w3.org/2000/svg"><path fill-rule="evenodd" clip-rule="evenodd" d="M0 24C0 10.745 10.745 0 24 0s24 10.745 24 24-10.745 24-24 24S0 37.255 0 24zm25.256 7.876s.462-.05.698-.3c.217-.228.21-.66.21-.66s-.03-2.014.923-2.312c.94-.292 2.145 1.948 3.425 2.81.966.651 1.7.509 1.7.509l3.42-.047s1.788-.108.94-1.488c-.07-.113-.495-1.022-2.542-2.887-2.145-1.953-1.857-1.638.725-5.016 1.573-2.058 2.201-3.314 2.005-3.85-.187-.515-1.344-.378-1.344-.378l-3.849.023s-.285-.038-.497.086c-.206.122-.34.406-.34.406s-.609 1.591-1.422 2.946c-1.714 2.856-2.398 3.007-2.679 2.83-.652-.414-.49-1.661-.49-2.547 0-2.77.429-3.924-.832-4.222-.418-.1-.726-.165-1.797-.176-1.373-.013-2.536.005-3.194.32-.438.211-.776.68-.57.708.254.033.83.152 1.136.56.394.527.38 1.71.38 1.71s.227 3.26-.53 3.663c-.517.278-1.229-.288-2.758-2.88-.782-1.328-1.373-2.795-1.373-2.795s-.114-.274-.318-.422c-.247-.178-.591-.233-.591-.233l-3.657.023s-.55.015-.752.25c-.179.207-.013.638-.013.638s2.863 6.577 6.106 9.892c2.974 3.038 6.35 2.84 6.35 2.84h1.53z"/></symbol><symbol viewBox="0 0 512 512" id="youtube" xmlns="http://www.w3.org/2000/svg"><path d="M256 0A256 256 0 000 256a256 256 0 00256 256 256 256 0 00256-256A256 256 0 00256 0zm-85.648 152.332h171.296c33.607 0 60.854 27.247 60.854 60.854v85.63c0 33.607-27.246 60.854-60.854 60.854H170.352c-33.607 0-60.854-27.246-60.854-60.854v-85.63c0-33.607 27.246-60.854 60.854-60.854zm48.457 61.115c-1.614.092-3.038 1.417-3.038 3.217v78.815c0 2.365 2.466 3.919 4.602 2.9l80.121-38.211c2.41-1.148 2.453-4.566.067-5.773l-80.12-40.6a3.191 3.191 0 00-1.632-.348z"/></symbol></svg>